<?xml version="1.0" encoding="UTF-8" standalone="no"?>
<!DOCTYPE svg PUBLIC "-//W3C//DTD SVG 1.1//EN"
 "http://www.w3.org/Graphics/SVG/1.1/DTD/svg11.dtd">
<!-- Generated by graphviz version 2.30.1 (20180420.1509)
 -->
<!-- Title: snakemake_dag Pages: 1 -->
<svg width="1225pt" height="836pt"
     viewBox="0.00 0.00 1224.96 836.00" xmlns="http://www.w3.org/2000/svg">
    <g id="graph0" class="graph" transform="scale(1 1) rotate(0) translate(4 832)">
        <title>snakemake_dag</title>
        <polygon fill="white" stroke="white" points="-4,5 -4,-832 1221.96,-832 1221.96,5 -4,5"/>
        <!-- 0 -->
        <g id="node1" class="node">
            <title>0</title>
            <path fill="none" stroke="#d86656" stroke-width="2"
                  d="M715,-36C715,-36 685,-36 685,-36 679,-36 673,-30 673,-24 673,-24 673,-12 673,-12 673,-6 679,-0 685,-0 685,-0 715,-0 715,-0 721,-0 727,-6 727,-12 727,-12 727,-24 727,-24 727,-30 721,-36 715,-36"/>
            <text text-anchor="middle" x="700" y="-15.5" font-family="sans" font-size="10.00">all</text>
        </g>
        <!-- 1 -->
        <g id="node2" class="node">
            <title>1</title>
            <path fill="none" stroke="#d87d56" stroke-width="2"
                  d="M174,-612C174,-612 78,-612 78,-612 72,-612 66,-606 66,-600 66,-600 66,-588 66,-588 66,-582 72,-576 78,-576 78,-576 174,-576 174,-576 180,-576 186,-582 186,-588 186,-588 186,-600 186,-600 186,-606 180,-612 174,-612"/>
            <text text-anchor="middle" x="126" y="-591.5" font-family="sans" font-size="10.00">pipeline_kraken_gzip
            </text>
        </g>
<!-- 1&#45;&gt;0 -->
        <g id="edge7" class="edge">
            <title>1&#45;&gt;0</title>
            <path fill="none" stroke="grey" stroke-width="2"
                  d="M94.8539,-575.88C57.5417,-552.822 0,-508.019 0,-451 0,-451 0,-451 0,-161 0,-24.4487 518.089,-17.7513 662.837,-18.5448"/>
            <polygon fill="grey" stroke="grey"
                     points="662.964,-22.0457 672.988,-18.6165 663.013,-15.0459 662.964,-22.0457"/>
        </g>
        <!-- 2 -->
        <g id="node3" class="node">
            <title>2</title>
            <path fill="none" stroke="#56d8b9" stroke-width="2"
                  d="M823.25,-180C823.25,-180 718.75,-180 718.75,-180 712.75,-180 706.75,-174 706.75,-168 706.75,-168 706.75,-156 706.75,-156 706.75,-150 712.75,-144 718.75,-144 718.75,-144 823.25,-144 823.25,-144 829.25,-144 835.25,-150 835.25,-156 835.25,-156 835.25,-168 835.25,-168 835.25,-174 829.25,-180 823.25,-180"/>
            <text text-anchor="middle" x="771" y="-159.5" font-family="sans" font-size="10.00">shiver_samtools_index
            </text>
        </g>
        <!-- 2&#45;&gt;0 -->
        <g id="edge11" class="edge">
            <title>2&#45;&gt;0</title>
            <path fill="none" stroke="grey" stroke-width="2"
                  d="M770.182,-143.962C768.666,-125.298 764.34,-94.9636 752,-72 746.29,-61.3734 737.805,-51.4334 729.337,-43.098"/>
            <polygon fill="grey" stroke="grey"
                     points="731.666,-40.4832 721.971,-36.2092 726.884,-45.5959 731.666,-40.4832"/>
        </g>
        <!-- 9 -->
        <g id="node10" class="node">
            <title>9</title>
            <path fill="none" stroke="#80d856" stroke-width="2"
                  d="M887.25,-108C887.25,-108 816.75,-108 816.75,-108 810.75,-108 804.75,-102 804.75,-96 804.75,-96 804.75,-84 804.75,-84 804.75,-78 810.75,-72 816.75,-72 816.75,-72 887.25,-72 887.25,-72 893.25,-72 899.25,-78 899.25,-84 899.25,-84 899.25,-96 899.25,-96 899.25,-102 893.25,-108 887.25,-108"/>
            <text text-anchor="middle" x="852" y="-87.5" font-family="sans" font-size="10.00">completion_flag</text>
        </g>
        <!-- 2&#45;&gt;9 -->
        <g id="edge27" class="edge">
            <title>2&#45;&gt;9</title>
            <path fill="none" stroke="grey" stroke-width="2"
                  d="M791.022,-143.697C801.126,-134.965 813.536,-124.24 824.518,-114.75"/>
            <polygon fill="grey" stroke="grey"
                     points="826.93,-117.291 832.208,-108.104 822.353,-111.995 826.93,-117.291"/>
        </g>
        <!-- 3 -->
        <g id="node4" class="node">
            <title>3</title>
            <path fill="none" stroke="#56d0d8" stroke-width="2"
                  d="M660,-108C660,-108 594,-108 594,-108 588,-108 582,-102 582,-96 582,-96 582,-84 582,-84 582,-78 588,-72 594,-72 594,-72 660,-72 660,-72 666,-72 672,-78 672,-84 672,-84 672,-96 672,-96 672,-102 666,-108 660,-108"/>
            <text text-anchor="middle" x="627" y="-87.5" font-family="sans" font-size="10.00">shiver_cleanup</text>
        </g>
        <!-- 3&#45;&gt;0 -->
        <g id="edge1" class="edge">
            <title>3&#45;&gt;0</title>
            <path fill="none" stroke="grey" stroke-width="2"
                  d="M645.045,-71.6966C654.062,-63.0503 665.118,-52.4486 674.943,-43.027"/>
            <polygon fill="grey" stroke="grey"
                     points="677.367,-45.5518 682.163,-36.1043 672.522,-40.4993 677.367,-45.5518"/>
        </g>
        <!-- 4 -->
        <g id="node5" class="node">
            <title>4</title>
            <path fill="none" stroke="#70d856" stroke-width="2"
                  d="M1087.25,-324C1087.25,-324 996.75,-324 996.75,-324 990.75,-324 984.75,-318 984.75,-312 984.75,-312 984.75,-300 984.75,-300 984.75,-294 990.75,-288 996.75,-288 996.75,-288 1087.25,-288 1087.25,-288 1093.25,-288 1099.25,-294 1099.25,-300 1099.25,-300 1099.25,-312 1099.25,-312 1099.25,-318 1093.25,-324 1087.25,-324"/>
            <text text-anchor="middle" x="1042" y="-303.5" font-family="sans" font-size="10.00">shiver_gapstrip_raw
            </text>
        </g>
        <!-- 4&#45;&gt;0 -->
        <g id="edge9" class="edge">
            <title>4&#45;&gt;0</title>
            <path fill="none" stroke="grey" stroke-width="2"
                  d="M1099.44,-288.735C1147.05,-274.981 1207.5,-256.771 1211,-252 1220.47,-239.104 1216.8,-230.912 1211,-216 1195.26,-175.543 1180.12,-169.512 1145,-144 1015.91,-50.2324 818.917,-26.7158 737.361,-20.8886"/>
            <polygon fill="grey" stroke="grey" points="737.3,-17.377 727.09,-20.206 736.836,-24.3616 737.3,-17.377"/>
        </g>
        <!-- 4&#45;&gt;9 -->
        <g id="edge25" class="edge">
            <title>4&#45;&gt;9</title>
            <path fill="none" stroke="grey" stroke-width="2"
                  d="M1047.13,-287.762C1055.54,-255.679 1068.2,-186.232 1035,-144 1026.98,-133.791 959.939,-116.165 909.307,-104.062"/>
            <polygon fill="grey" stroke="grey"
                     points="909.959,-100.619 899.421,-101.719 908.344,-107.431 909.959,-100.619"/>
        </g>
        <!-- 19 -->
        <g id="node20" class="node">
            <title>19</title>
            <path fill="none" stroke="#56d8c9" stroke-width="2"
                  d="M778.25,-252C778.25,-252 743.75,-252 743.75,-252 737.75,-252 731.75,-246 731.75,-240 731.75,-240 731.75,-228 731.75,-228 731.75,-222 737.75,-216 743.75,-216 743.75,-216 778.25,-216 778.25,-216 784.25,-216 790.25,-222 790.25,-228 790.25,-228 790.25,-240 790.25,-240 790.25,-246 784.25,-252 778.25,-252"/>
            <text text-anchor="middle" x="761" y="-231.5" font-family="sans" font-size="10.00">pangolin</text>
        </g>
        <!-- 4&#45;&gt;19 -->
        <g id="edge43" class="edge">
            <title>4&#45;&gt;19</title>
            <path fill="none" stroke="grey" stroke-width="2"
                  d="M984.457,-290.666C929.558,-276.989 848.33,-256.755 800.421,-244.82"/>
            <polygon fill="grey" stroke="grey"
                     points="800.986,-241.354 790.437,-242.333 799.294,-248.146 800.986,-241.354"/>
        </g>
        <!-- 5 -->
        <g id="node6" class="node">
            <title>5</title>
            <path fill="none" stroke="#d89c56" stroke-width="2"
                  d="M1014,-180C1014,-180 866,-180 866,-180 860,-180 854,-174 854,-168 854,-168 854,-156 854,-156 854,-150 860,-144 866,-144 866,-144 1014,-144 1014,-144 1020,-144 1026,-150 1026,-156 1026,-156 1026,-168 1026,-168 1026,-174 1020,-180 1014,-180"/>
            <text text-anchor="middle" x="940" y="-159.5" font-family="sans" font-size="10.00">
                shiver_gapstrip_basefreqs_run2
            </text>
        </g>
        <!-- 5&#45;&gt;0 -->
        <g id="edge12" class="edge">
            <title>5&#45;&gt;0</title>
            <path fill="none" stroke="grey" stroke-width="2"
                  d="M938.587,-143.972C935.992,-123.859 928.659,-90.7717 908,-72 860.664,-28.9887 783.307,-19.8274 737.46,-18.4604"/>
            <polygon fill="grey" stroke="grey"
                     points="737.413,-14.959 727.349,-18.2706 737.282,-21.9578 737.413,-14.959"/>
        </g>
        <!-- 5&#45;&gt;9 -->
        <g id="edge28" class="edge">
            <title>5&#45;&gt;9</title>
            <path fill="none" stroke="grey" stroke-width="2"
                  d="M918.247,-143.697C907.164,-134.881 893.526,-124.032 881.51,-114.474"/>
            <polygon fill="grey" stroke="grey"
                     points="883.507,-111.59 873.503,-108.104 879.15,-117.069 883.507,-111.59"/>
        </g>
        <!-- 6 -->
        <g id="node7" class="node">
            <title>6</title>
            <path fill="none" stroke="#56d892" stroke-width="2"
                  d="M1124,-180C1124,-180 1094,-180 1094,-180 1088,-180 1082,-174 1082,-168 1082,-168 1082,-156 1082,-156 1082,-150 1088,-144 1094,-144 1094,-144 1124,-144 1124,-144 1130,-144 1136,-150 1136,-156 1136,-156 1136,-168 1136,-168 1136,-174 1130,-180 1124,-180"/>
            <text text-anchor="middle" x="1109" y="-159.5" font-family="sans" font-size="10.00">iqtree</text>
        </g>
        <!-- 6&#45;&gt;0 -->
        <g id="edge10" class="edge">
            <title>6&#45;&gt;0</title>
            <path fill="none" stroke="grey" stroke-width="2"
                  d="M1081.89,-144.646C1048.11,-124.893 988.082,-91.8525 933,-72 865.876,-47.8076 783.775,-32.1994 737.12,-24.5607"/>
            <polygon fill="grey" stroke="grey"
                     points="737.593,-21.0919 727.165,-22.9641 736.484,-28.0035 737.593,-21.0919"/>
        </g>
        <!-- 6&#45;&gt;9 -->
        <g id="edge26" class="edge">
            <title>6&#45;&gt;9</title>
            <path fill="none" stroke="grey" stroke-width="2"
                  d="M1081.87,-149.073C1077.29,-147.253 1072.54,-145.488 1068,-144 1015.07,-126.645 953.201,-112.019 909.277,-102.558"/>
            <polygon fill="grey" stroke="grey"
                     points="909.862,-99.1041 899.352,-100.442 908.402,-105.95 909.862,-99.1041"/>
        </g>
        <!-- 7 -->
        <g id="node8" class="node">
            <title>7</title>
            <path fill="none" stroke="#97d856" stroke-width="2"
                  d="M676.25,-180C676.25,-180 567.75,-180 567.75,-180 561.75,-180 555.75,-174 555.75,-168 555.75,-168 555.75,-156 555.75,-156 555.75,-150 561.75,-144 567.75,-144 567.75,-144 676.25,-144 676.25,-144 682.25,-144 688.25,-150 688.25,-156 688.25,-156 688.25,-168 688.25,-168 688.25,-174 682.25,-180 676.25,-180"/>
            <text text-anchor="middle" x="622" y="-159.5" font-family="sans" font-size="10.00">pangolin_combine_csvs
            </text>
        </g>
        <!-- 7&#45;&gt;0 -->
        <g id="edge6" class="edge">
            <title>7&#45;&gt;0</title>
            <path fill="none" stroke="grey" stroke-width="2"
                  d="M672.093,-143.967C688.398,-135.768 704.684,-124.119 714,-108 724.947,-89.0595 719.754,-64.2495 712.789,-45.637"/>
            <polygon fill="grey" stroke="grey"
                     points="715.98,-44.1944 708.945,-36.2723 709.504,-46.8523 715.98,-44.1944"/>
        </g>
        <!-- 7&#45;&gt;9 -->
        <g id="edge24" class="edge">
            <title>7&#45;&gt;9</title>
            <path fill="none" stroke="grey" stroke-width="2"
                  d="M677.97,-143.966C713.461,-133.164 759.242,-119.231 794.941,-108.366"/>
            <polygon fill="grey" stroke="grey"
                     points="796.177,-111.648 804.725,-105.388 794.139,-104.951 796.177,-111.648"/>
        </g>
        <!-- 8 -->
        <g id="node9" class="node">
            <title>8</title>
            <path fill="none" stroke="#56c1d8" stroke-width="2"
                  d="M525,-180C525,-180 447,-180 447,-180 441,-180 435,-174 435,-168 435,-168 435,-156 435,-156 435,-150 441,-144 447,-144 447,-144 525,-144 525,-144 531,-144 537,-150 537,-156 537,-156 537,-168 537,-168 537,-174 531,-180 525,-180"/>
            <text text-anchor="middle" x="486" y="-159.5" font-family="sans" font-size="10.00">qc_combine_csvs</text>
        </g>
        <!-- 8&#45;&gt;0 -->
        <g id="edge3" class="edge">
            <title>8&#45;&gt;0</title>
            <path fill="none" stroke="grey" stroke-width="2"
                  d="M537.048,-146.478C540.076,-145.635 543.077,-144.804 546,-144 605.874,-127.536 638.209,-152.999 681,-108 696.525,-91.6741 700.65,-65.9226 701.258,-46.311"/>
            <polygon fill="grey" stroke="grey"
                     points="704.758,-46.1551 701.284,-36.1462 697.758,-46.1372 704.758,-46.1551"/>
        </g>
        <!-- 8&#45;&gt;3 -->
        <g id="edge17" class="edge">
            <title>8&#45;&gt;3</title>
            <path fill="none" stroke="grey" stroke-width="2"
                  d="M520.492,-143.876C539.44,-134.469 563.132,-122.708 583.356,-112.667"/>
            <polygon fill="grey" stroke="grey"
                     points="584.974,-115.771 592.375,-108.19 581.862,-109.502 584.974,-115.771"/>
        </g>
        <!-- 8&#45;&gt;9 -->
        <g id="edge23" class="edge">
            <title>8&#45;&gt;9</title>
            <path fill="none" stroke="grey" stroke-width="2"
                  d="M537.296,-146.085C540.233,-145.35 543.15,-144.649 546,-144 631.903,-124.447 732.814,-108.262 794.575,-99.1117"/>
            <polygon fill="grey" stroke="grey"
                     points="795.132,-102.567 804.516,-97.6495 794.113,-95.642 795.132,-102.567"/>
        </g>
        <!-- 10 -->
        <g id="node11" class="node">
            <title>10</title>
            <path fill="none" stroke="#b6d856" stroke-width="2"
                  d="M430,-108C430,-108 350,-108 350,-108 344,-108 338,-102 338,-96 338,-96 338,-84 338,-84 338,-78 344,-72 350,-72 350,-72 430,-72 430,-72 436,-72 442,-78 442,-84 442,-84 442,-96 442,-96 442,-102 436,-108 430,-108"/>
            <text text-anchor="middle" x="390" y="-87.5" font-family="sans" font-size="10.00">gzip_fastq_clean1</text>
        </g>
        <!-- 8&#45;&gt;10 -->
        <g id="edge29" class="edge">
            <title>8&#45;&gt;10</title>
            <path fill="none" stroke="grey" stroke-width="2"
                  d="M462.27,-143.697C450.063,-134.796 435.015,-123.823 421.816,-114.199"/>
            <polygon fill="grey" stroke="grey"
                     points="423.6,-111.168 413.457,-108.104 419.475,-116.824 423.6,-111.168"/>
        </g>
        <!-- 11 -->
        <g id="node12" class="node">
            <title>11</title>
            <path fill="none" stroke="#56d873" stroke-width="2"
                  d="M552,-108C552,-108 472,-108 472,-108 466,-108 460,-102 460,-96 460,-96 460,-84 460,-84 460,-78 466,-72 472,-72 472,-72 552,-72 552,-72 558,-72 564,-78 564,-84 564,-84 564,-96 564,-96 564,-102 558,-108 552,-108"/>
            <text text-anchor="middle" x="512" y="-87.5" font-family="sans" font-size="10.00">gzip_fastq_clean2</text>
        </g>
        <!-- 8&#45;&gt;11 -->
        <g id="edge31" class="edge">
            <title>8&#45;&gt;11</title>
            <path fill="none" stroke="grey" stroke-width="2"
                  d="M492.427,-143.697C495.355,-135.813 498.887,-126.304 502.14,-117.546"/>
            <polygon fill="grey" stroke="grey"
                     points="505.446,-118.697 505.647,-108.104 498.884,-116.26 505.446,-118.697"/>
        </g>
        <!-- 12 -->
        <g id="node13" class="node">
            <title>12</title>
            <path fill="none" stroke="#56d85b" stroke-width="2"
                  d="M307.25,-108C307.25,-108 240.75,-108 240.75,-108 234.75,-108 228.75,-102 228.75,-96 228.75,-96 228.75,-84 228.75,-84 228.75,-78 234.75,-72 240.75,-72 240.75,-72 307.25,-72 307.25,-72 313.25,-72 319.25,-78 319.25,-84 319.25,-84 319.25,-96 319.25,-96 319.25,-102 313.25,-108 307.25,-108"/>
            <text text-anchor="middle" x="274" y="-87.5" font-family="sans" font-size="10.00">gzip_fastq_filt1</text>
        </g>
        <!-- 8&#45;&gt;12 -->
        <g id="edge34" class="edge">
            <title>8&#45;&gt;12</title>
            <path fill="none" stroke="grey" stroke-width="2"
                  d="M434.951,-144.144C403.084,-133.622 362.059,-120.076 329.403,-109.294"/>
            <polygon fill="grey" stroke="grey"
                     points="330.15,-105.854 319.557,-106.042 327.955,-112.501 330.15,-105.854"/>
        </g>
        <!-- 13 -->
        <g id="node14" class="node">
            <title>13</title>
            <path fill="none" stroke="#d8ac56" stroke-width="2"
                  d="M198.25,-108C198.25,-108 131.75,-108 131.75,-108 125.75,-108 119.75,-102 119.75,-96 119.75,-96 119.75,-84 119.75,-84 119.75,-78 125.75,-72 131.75,-72 131.75,-72 198.25,-72 198.25,-72 204.25,-72 210.25,-78 210.25,-84 210.25,-84 210.25,-96 210.25,-96 210.25,-102 204.25,-108 198.25,-108"/>
            <text text-anchor="middle" x="165" y="-87.5" font-family="sans" font-size="10.00">gzip_fastq_filt2</text>
        </g>
        <!-- 8&#45;&gt;13 -->
        <g id="edge36" class="edge">
            <title>8&#45;&gt;13</title>
            <path fill="none" stroke="grey" stroke-width="2"
                  d="M434.94,-152.572C383.037,-143.623 300.186,-128.292 220.03,-108.128"/>
            <polygon fill="grey" stroke="grey"
                     points="220.824,-104.719 210.27,-105.646 219.099,-111.503 220.824,-104.719"/>
        </g>
        <!-- 9&#45;&gt;0 -->
        <g id="edge8" class="edge">
            <title>9&#45;&gt;0</title>
            <path fill="none" stroke="grey" stroke-width="2"
                  d="M814.817,-71.8761C791.025,-60.9193 760.295,-46.7675 736.615,-35.8621"/>
            <polygon fill="grey" stroke="grey"
                     points="737.812,-32.5602 727.265,-31.5563 734.884,-38.9184 737.812,-32.5602"/>
        </g>
        <!-- 10&#45;&gt;0 -->
        <g id="edge5" class="edge">
            <title>10&#45;&gt;0</title>
            <path fill="none" stroke="grey" stroke-width="2"
                  d="M442.187,-74.2264C445.164,-73.4553 448.117,-72.7078 451,-72 525.779,-53.6404 614.097,-35.7237 662.895,-26.15"/>
            <polygon fill="grey" stroke="grey"
                     points="663.834,-29.5328 672.977,-24.1804 662.491,-22.6627 663.834,-29.5328"/>
        </g>
        <!-- 11&#45;&gt;0 -->
        <g id="edge4" class="edge">
            <title>11&#45;&gt;0</title>
            <path fill="none" stroke="grey" stroke-width="2"
                  d="M557.99,-71.8761C590.317,-59.8394 633,-43.9469 663.102,-32.7385"/>
            <polygon fill="grey" stroke="grey"
                     points="664.646,-35.8987 672.796,-29.1292 662.203,-29.3386 664.646,-35.8987"/>
        </g>
        <!-- 12&#45;&gt;0 -->
        <g id="edge2" class="edge">
            <title>12&#45;&gt;0</title>
            <path fill="none" stroke="grey" stroke-width="2"
                  d="M319.469,-74.3395C322.68,-73.4916 325.879,-72.7005 329,-72 449.52,-44.9436 595.317,-28.8694 662.622,-22.3684"/>
            <polygon fill="grey" stroke="grey"
                     points="663.111,-25.8378 672.735,-21.407 662.448,-18.8692 663.111,-25.8378"/>
        </g>
        <!-- 13&#45;&gt;0 -->
        <g id="edge13" class="edge">
            <title>13&#45;&gt;0</title>
            <path fill="none" stroke="grey" stroke-width="2"
                  d="M210.499,-73.9893C213.361,-73.2589 216.211,-72.5868 219,-72 382.064,-37.6925 581.189,-24.7314 662.61,-20.6335"/>
            <polygon fill="grey" stroke="grey"
                     points="663.034,-24.1171 672.851,-20.134 662.693,-17.1254 663.034,-24.1171"/>
        </g>
        <!-- 14 -->
        <g id="node15" class="node">
            <title>14</title>
            <path fill="none" stroke="#61d856" stroke-width="2"
                  d="M301.25,-756C301.25,-756 224.75,-756 224.75,-756 218.75,-756 212.75,-750 212.75,-744 212.75,-744 212.75,-732 212.75,-732 212.75,-726 218.75,-720 224.75,-720 224.75,-720 301.25,-720 301.25,-720 307.25,-720 313.25,-726 313.25,-732 313.25,-732 313.25,-744 313.25,-744 313.25,-750 307.25,-756 301.25,-756"/>
            <text text-anchor="middle" x="263" y="-735.5" font-family="sans" font-size="10.00">pipeline_kraken2</text>
        </g>
        <!-- 14&#45;&gt;1 -->
        <g id="edge15" class="edge">
            <title>14&#45;&gt;1</title>
            <path fill="none" stroke="grey" stroke-width="2"
                  d="M246.475,-719.871C222.303,-694.817 177.184,-648.052 149.547,-619.406"/>
            <polygon fill="grey" stroke="grey"
                     points="152.046,-616.956 142.584,-612.189 147.008,-621.816 152.046,-616.956"/>
        </g>
        <!-- 15 -->
        <g id="node16" class="node">
            <title>15</title>
            <path fill="none" stroke="#d8c356" stroke-width="2"
                  d="M413.25,-684C413.25,-684 292.75,-684 292.75,-684 286.75,-684 280.75,-678 280.75,-672 280.75,-672 280.75,-660 280.75,-660 280.75,-654 286.75,-648 292.75,-648 292.75,-648 413.25,-648 413.25,-648 419.25,-648 425.25,-654 425.25,-660 425.25,-660 425.25,-672 425.25,-672 425.25,-678 419.25,-684 413.25,-684"/>
            <text text-anchor="middle" x="353" y="-663.5" font-family="sans" font-size="10.00">
                pipeline_filter_keep_reads
            </text>
        </g>
        <!-- 14&#45;&gt;15 -->
        <g id="edge38" class="edge">
            <title>14&#45;&gt;15</title>
            <path fill="none" stroke="grey" stroke-width="2"
                  d="M285.247,-719.697C296.582,-710.881 310.53,-700.032 322.819,-690.474"/>
            <polygon fill="grey" stroke="grey"
                     points="325.264,-693.007 331.009,-684.104 320.966,-687.481 325.264,-693.007"/>
        </g>
        <!-- 20 -->
        <g id="node21" class="node">
            <title>20</title>
            <path fill="none" stroke="#567bd8" stroke-width="2"
                  d="M581,-252C581,-252 551,-252 551,-252 545,-252 539,-246 539,-240 539,-240 539,-228 539,-228 539,-222 545,-216 551,-216 551,-216 581,-216 581,-216 587,-216 593,-222 593,-228 593,-228 593,-240 593,-240 593,-246 587,-252 581,-252"/>
            <text text-anchor="middle" x="566" y="-231.5" font-family="sans" font-size="10.00">qc</text>
        </g>
        <!-- 14&#45;&gt;20 -->
        <g id="edge48" class="edge">
            <title>14&#45;&gt;20</title>
            <path fill="none" stroke="grey" stroke-width="2"
                  d="M260.827,-719.984C257.621,-693.369 252,-640.25 252,-595 252,-595 252,-595 252,-449 252,-316.303 445.855,-260.016 528.929,-241.988"/>
            <polygon fill="grey" stroke="grey"
                     points="529.89,-245.362 538.957,-239.881 528.451,-238.512 529.89,-245.362"/>
        </g>
        <!-- 15&#45;&gt;1 -->
        <g id="edge14" class="edge">
            <title>15&#45;&gt;1</title>
            <path fill="none" stroke="grey" stroke-width="2"
                  d="M297.76,-647.966C265.629,-638.057 224.952,-625.514 191.25,-615.121"/>
            <polygon fill="grey" stroke="grey"
                     points="192.075,-611.713 181.488,-612.111 190.012,-618.402 192.075,-611.713"/>
        </g>
        <!-- 15&#45;&gt;12 -->
        <g id="edge33" class="edge">
            <title>15&#45;&gt;12</title>
            <path fill="none" stroke="grey" stroke-width="2"
                  d="M339.639,-647.721C321.146,-622.027 290,-571.546 290,-523 290,-523 290,-523 290,-233 290,-192.963 283.642,-146.973 278.941,-118.447"/>
            <polygon fill="grey" stroke="grey"
                     points="282.363,-117.69 277.238,-108.418 275.462,-118.862 282.363,-117.69"/>
        </g>
        <!-- 15&#45;&gt;13 -->
        <g id="edge35" class="edge">
            <title>15&#45;&gt;13</title>
            <path fill="none" stroke="grey" stroke-width="2"
                  d="M317.204,-647.942C276.019,-625.532 214,-581.992 214,-523 214,-523 214,-523 214,-233 214,-190.775 194.4,-145.16 179.992,-117.334"/>
            <polygon fill="grey" stroke="grey"
                     points="182.949,-115.442 175.153,-108.268 176.774,-118.738 182.949,-115.442"/>
        </g>
        <!-- 21 -->
        <g id="node22" class="node">
            <title>21</title>
            <path fill="none" stroke="#56d882" stroke-width="2"
                  d="M443.25,-612C443.25,-612 342.75,-612 342.75,-612 336.75,-612 330.75,-606 330.75,-600 330.75,-600 330.75,-588 330.75,-588 330.75,-582 336.75,-576 342.75,-576 342.75,-576 443.25,-576 443.25,-576 449.25,-576 455.25,-582 455.25,-588 455.25,-588 455.25,-600 455.25,-600 455.25,-606 449.25,-612 443.25,-612"/>
            <text text-anchor="middle" x="393" y="-591.5" font-family="sans" font-size="10.00">pipeline_trimmomatic
            </text>
        </g>
        <!-- 15&#45;&gt;21 -->
        <g id="edge50" class="edge">
            <title>15&#45;&gt;21</title>
            <path fill="none" stroke="grey" stroke-width="2"
                  d="M362.888,-647.697C367.489,-639.644 373.06,-629.894 378.153,-620.982"/>
            <polygon fill="grey" stroke="grey"
                     points="381.304,-622.523 383.226,-612.104 375.226,-619.05 381.304,-622.523"/>
        </g>
        <!-- 27 -->
        <g id="node28" class="node">
            <title>27</title>
            <path fill="none" stroke="#566bd8" stroke-width="2"
                  d="M608,-540C608,-540 444,-540 444,-540 438,-540 432,-534 432,-528 432,-528 432,-516 432,-516 432,-510 438,-504 444,-504 444,-504 608,-504 608,-504 614,-504 620,-510 620,-516 620,-516 620,-528 620,-528 620,-534 614,-540 608,-540"/>
            <text text-anchor="middle" x="526" y="-519.5" font-family="sans" font-size="10.00">
                shiver_preprocess_readnames_fwd
            </text>
        </g>
        <!-- 15&#45;&gt;27 -->
        <g id="edge56" class="edge">
            <title>15&#45;&gt;27</title>
            <path fill="none" stroke="grey" stroke-width="2"
                  d="M402.378,-647.899C422.871,-639.235 446.011,-627.272 464,-612 484.725,-594.404 501.794,-568.348 512.738,-548.971"/>
            <polygon fill="grey" stroke="grey"
                     points="515.883,-550.515 517.607,-540.061 509.74,-547.158 515.883,-550.515"/>
        </g>
        <!-- 28 -->
        <g id="node29" class="node">
            <title>28</title>
            <path fill="none" stroke="#56b1d8" stroke-width="2"
                  d="M817.25,-540C817.25,-540 650.75,-540 650.75,-540 644.75,-540 638.75,-534 638.75,-528 638.75,-528 638.75,-516 638.75,-516 638.75,-510 644.75,-504 650.75,-504 650.75,-504 817.25,-504 817.25,-504 823.25,-504 829.25,-510 829.25,-516 829.25,-516 829.25,-528 829.25,-528 829.25,-534 823.25,-540 817.25,-540"/>
            <text text-anchor="middle" x="734" y="-519.5" font-family="sans" font-size="10.00">
                shiver_preprocess_readnames_bwd
            </text>
        </g>
        <!-- 15&#45;&gt;28 -->
        <g id="edge58" class="edge">
            <title>15&#45;&gt;28</title>
            <path fill="none" stroke="grey" stroke-width="2"
                  d="M398.958,-647.871C469.136,-621.716 602.801,-571.898 678.361,-543.737"/>
            <polygon fill="grey" stroke="grey"
                     points="680.028,-546.851 688.176,-540.079 677.584,-540.291 680.028,-546.851"/>
        </g>
        <!-- 16 -->
        <g id="node17" class="node">
            <title>16</title>
            <path fill="none" stroke="#d8d356" stroke-width="2"
                  d="M972,-396C972,-396 862,-396 862,-396 856,-396 850,-390 850,-384 850,-384 850,-372 850,-372 850,-366 856,-360 862,-360 862,-360 972,-360 972,-360 978,-360 984,-366 984,-372 984,-372 984,-384 984,-384 984,-390 978,-396 972,-396"/>
            <text text-anchor="middle" x="917" y="-375.5" font-family="sans" font-size="10.00">shiver_map_reads_copy
            </text>
        </g>
        <!-- 16&#45;&gt;2 -->
        <g id="edge16" class="edge">
            <title>16&#45;&gt;2</title>
            <path fill="none" stroke="grey" stroke-width="2"
                  d="M927.384,-359.783C937.124,-341.23 948.593,-311.241 937,-288 912.799,-239.481 859.799,-204.848 820.157,-184.519"/>
            <polygon fill="grey" stroke="grey"
                     points="821.667,-181.361 811.156,-180.029 818.542,-187.625 821.667,-181.361"/>
        </g>
        <!-- 16&#45;&gt;4 -->
        <g id="edge18" class="edge">
            <title>16&#45;&gt;4</title>
            <path fill="none" stroke="grey" stroke-width="2"
                  d="M947.578,-359.876C964.074,-350.639 984.624,-339.131 1002.34,-329.212"/>
            <polygon fill="grey" stroke="grey"
                     points="1004.29,-332.13 1011.3,-324.19 1000.87,-326.022 1004.29,-332.13"/>
        </g>
        <!-- 17 -->
        <g id="node18" class="node">
            <title>17</title>
            <path fill="none" stroke="#ced856" stroke-width="2"
                  d="M916,-324C916,-324 840,-324 840,-324 834,-324 828,-318 828,-312 828,-312 828,-300 828,-300 828,-294 834,-288 840,-288 840,-288 916,-288 916,-288 922,-288 928,-294 928,-300 928,-300 928,-312 928,-312 928,-318 922,-324 916,-324"/>
            <text text-anchor="middle" x="878" y="-303.5" font-family="sans" font-size="10.00">shiver_basefreqs</text>
        </g>
        <!-- 16&#45;&gt;17 -->
        <g id="edge41" class="edge">
            <title>16&#45;&gt;17</title>
            <path fill="none" stroke="grey" stroke-width="2"
                  d="M907.36,-359.697C902.873,-351.644 897.441,-341.894 892.476,-332.982"/>
            <polygon fill="grey" stroke="grey"
                     points="895.454,-331.137 887.53,-324.104 889.339,-334.544 895.454,-331.137"/>
        </g>
        <!-- 16&#45;&gt;20 -->
        <g id="edge45" class="edge">
            <title>16&#45;&gt;20</title>
            <path fill="none" stroke="grey" stroke-width="2"
                  d="M849.646,-368.352C806.063,-360.856 749.071,-347.397 703,-324 680.777,-312.714 680.498,-302.18 660,-288 641.632,-275.293 619.985,-262.927 602.098,-253.34"/>
            <polygon fill="grey" stroke="grey"
                     points="603.6,-250.175 593.124,-248.593 600.327,-256.362 603.6,-250.175"/>
        </g>
        <!-- 24 -->
        <g id="node25" class="node">
            <title>24</title>
            <path fill="none" stroke="#d88d56" stroke-width="2"
                  d="M1178.25,-324C1178.25,-324 1129.75,-324 1129.75,-324 1123.75,-324 1117.75,-318 1117.75,-312 1117.75,-312 1117.75,-300 1117.75,-300 1117.75,-294 1123.75,-288 1129.75,-288 1129.75,-288 1178.25,-288 1178.25,-288 1184.25,-288 1190.25,-294 1190.25,-300 1190.25,-300 1190.25,-312 1190.25,-312 1190.25,-318 1184.25,-324 1178.25,-324"/>
            <text text-anchor="middle" x="1154" y="-303.5" font-family="sans" font-size="10.00">iqtree_filter</text>
        </g>
        <!-- 16&#45;&gt;24 -->
        <g id="edge54" class="edge">
            <title>16&#45;&gt;24</title>
            <path fill="none" stroke="grey" stroke-width="2"
                  d="M983.7,-359.952C1020.57,-350.164 1067.07,-337.218 1108,-324 1108.1,-323.968 1108.2,-323.936 1108.3,-323.904"/>
            <polygon fill="grey" stroke="grey"
                     points="1109.33,-327.249 1117.69,-320.737 1107.09,-320.616 1109.33,-327.249"/>
        </g>
        <!-- 17&#45;&gt;5 -->
        <g id="edge19" class="edge">
            <title>17&#45;&gt;5</title>
            <path fill="none" stroke="grey" stroke-width="2"
                  d="M885.479,-287.871C896.138,-263.457 915.8,-218.426 928.371,-189.635"/>
            <polygon fill="grey" stroke="grey"
                     points="931.701,-190.754 932.495,-180.189 925.286,-187.953 931.701,-190.754"/>
        </g>
        <!-- 17&#45;&gt;20 -->
        <g id="edge47" class="edge">
            <title>17&#45;&gt;20</title>
            <path fill="none" stroke="grey" stroke-width="2"
                  d="M827.856,-290.278C824.866,-289.485 821.897,-288.72 819,-288 742.761,-269.059 652.491,-251.24 603.025,-241.865"/>
            <polygon fill="grey" stroke="grey"
                     points="603.584,-238.409 593.108,-239.995 602.287,-245.288 603.584,-238.409"/>
        </g>
        <!-- 18 -->
        <g id="node19" class="node">
            <title>18</title>
            <path fill="none" stroke="#56a2d8" stroke-width="2"
                  d="M1190,-252C1190,-252 1094,-252 1094,-252 1088,-252 1082,-246 1082,-240 1082,-240 1082,-228 1082,-228 1082,-222 1088,-216 1094,-216 1094,-216 1190,-216 1190,-216 1196,-216 1202,-222 1202,-228 1202,-228 1202,-240 1202,-240 1202,-246 1196,-252 1190,-252"/>
            <text text-anchor="middle" x="1142" y="-231.5" font-family="sans" font-size="10.00">iqtree_filter_combine
            </text>
        </g>
        <!-- 18&#45;&gt;6 -->
        <g id="edge20" class="edge">
            <title>18&#45;&gt;6</title>
            <path fill="none" stroke="grey" stroke-width="2"
                  d="M1133.84,-215.697C1130.09,-207.728 1125.55,-198.1 1121.38,-189.264"/>
            <polygon fill="grey" stroke="grey"
                     points="1124.49,-187.657 1117.06,-180.104 1118.16,-190.642 1124.49,-187.657"/>
        </g>
        <!-- 19&#45;&gt;7 -->
        <g id="edge21" class="edge">
            <title>19&#45;&gt;7</title>
            <path fill="none" stroke="grey" stroke-width="2"
                  d="M731.522,-218.155C712.137,-208.393 686.45,-195.457 664.825,-184.567"/>
            <polygon fill="grey" stroke="grey"
                     points="666.342,-181.412 655.837,-180.04 663.194,-187.664 666.342,-181.412"/>
        </g>
        <!-- 20&#45;&gt;8 -->
        <g id="edge22" class="edge">
            <title>20&#45;&gt;8</title>
            <path fill="none" stroke="grey" stroke-width="2"
                  d="M546.225,-215.697C536.246,-206.965 523.989,-196.24 513.143,-186.75"/>
            <polygon fill="grey" stroke="grey"
                     points="515.378,-184.055 505.548,-180.104 510.769,-189.323 515.378,-184.055"/>
        </g>
        <!-- 21&#45;&gt;10 -->
        <g id="edge30" class="edge">
            <title>21&#45;&gt;10</title>
            <path fill="none" stroke="grey" stroke-width="2"
                  d="M376.657,-575.563C368.236,-565.758 358.416,-552.92 352,-540 333.779,-503.307 328,-491.969 328,-451 328,-451 328,-451 328,-233 328,-189.497 352.742,-144.29 370.966,-116.892"/>
            <polygon fill="grey" stroke="grey"
                     points="374.081,-118.538 376.851,-108.312 368.309,-114.579 374.081,-118.538"/>
        </g>
        <!-- 21&#45;&gt;11 -->
        <g id="edge32" class="edge">
            <title>21&#45;&gt;11</title>
            <path fill="none" stroke="grey" stroke-width="2"
                  d="M389.11,-575.879C375.773,-512.809 337.421,-289.559 426,-144 433.778,-131.218 445.923,-121.07 458.66,-113.219"/>
            <polygon fill="grey" stroke="grey"
                     points="460.585,-116.15 467.527,-108.146 457.109,-110.074 460.585,-116.15"/>
        </g>
        <!-- 23 -->
        <g id="node24" class="node">
            <title>23</title>
            <path fill="none" stroke="#a7d856" stroke-width="2"
                  d="M647,-468C647,-468 565,-468 565,-468 559,-468 553,-462 553,-456 553,-456 553,-444 553,-444 553,-438 559,-432 565,-432 565,-432 647,-432 647,-432 653,-432 659,-438 659,-444 659,-444 659,-456 659,-456 659,-462 653,-468 647,-468"/>
            <text text-anchor="middle" x="606" y="-447.5" font-family="sans" font-size="10.00">shiver_map_reads</text>
        </g>
        <!-- 21&#45;&gt;23 -->
        <g id="edge53" class="edge">
            <title>21&#45;&gt;23</title>
            <path fill="none" stroke="grey" stroke-width="2"
                  d="M394.144,-575.754C396.399,-555.741 403.098,-523.06 423,-504 455.016,-473.338 503.667,-460.255 542.759,-454.748"/>
            <polygon fill="grey" stroke="grey"
                     points="543.514,-458.18 552.992,-453.446 542.63,-451.236 543.514,-458.18"/>
        </g>
        <!-- 21&#45;&gt;27 -->
        <g id="edge57" class="edge">
            <title>21&#45;&gt;27</title>
            <path fill="none" stroke="grey" stroke-width="2"
                  d="M425.535,-575.876C443.247,-566.554 465.353,-554.919 484.316,-544.939"/>
            <polygon fill="grey" stroke="grey" points="486.12,-547.944 493.339,-540.19 482.86,-541.75 486.12,-547.944"/>
        </g>
        <!-- 21&#45;&gt;28 -->
        <g id="edge59" class="edge">
            <title>21&#45;&gt;28</title>
            <path fill="none" stroke="grey" stroke-width="2"
                  d="M455.545,-580.161C507.437,-569.509 581.993,-554.204 640.901,-542.111"/>
            <polygon fill="grey" stroke="grey"
                     points="641.868,-545.486 650.96,-540.046 640.461,-538.629 641.868,-545.486"/>
        </g>
        <!-- 22 -->
        <g id="node23" class="node">
            <title>22</title>
            <path fill="none" stroke="#568ad8" stroke-width="2"
                  d="M353,-828C353,-828 257,-828 257,-828 251,-828 245,-822 245,-816 245,-816 245,-804 245,-804 245,-798 251,-792 257,-792 257,-792 353,-792 353,-792 359,-792 365,-798 365,-804 365,-804 365,-816 365,-816 365,-822 359,-828 353,-828"/>
            <text text-anchor="middle" x="305" y="-807.5" font-family="sans" font-size="10.00">pipeline_decompress
            </text>
        </g>
        <!-- 22&#45;&gt;14 -->
        <g id="edge37" class="edge">
            <title>22&#45;&gt;14</title>
            <path fill="none" stroke="grey" stroke-width="2"
                  d="M294.618,-791.697C289.735,-783.559 283.813,-773.689 278.421,-764.701"/>
            <polygon fill="grey" stroke="grey"
                     points="281.409,-762.879 273.263,-756.104 275.406,-766.48 281.409,-762.879"/>
        </g>
        <!-- 22&#45;&gt;15 -->
        <g id="edge39" class="edge">
            <title>22&#45;&gt;15</title>
            <path fill="none" stroke="grey" stroke-width="2"
                  d="M310.79,-791.871C319.007,-767.564 334.132,-722.819 343.869,-694.013"/>
            <polygon fill="grey" stroke="grey"
                     points="347.303,-694.783 347.19,-684.189 340.672,-692.542 347.303,-694.783"/>
        </g>
        <!-- 22&#45;&gt;20 -->
        <g id="edge49" class="edge">
            <title>22&#45;&gt;20</title>
            <path fill="none" stroke="grey" stroke-width="2"
                  d="M244.747,-803.374C165.998,-792.328 38,-760.06 38,-667 38,-667 38,-667 38,-377 38,-275.297 407.937,-244.363 528.506,-236.981"/>
            <polygon fill="grey" stroke="grey"
                     points="528.949,-240.461 538.724,-236.376 528.535,-233.474 528.949,-240.461"/>
        </g>
        <!-- 26 -->
        <g id="node27" class="node">
            <title>26</title>
            <path fill="none" stroke="#d85656" stroke-width="2"
                  d="M693,-684C693,-684 645,-684 645,-684 639,-684 633,-678 633,-672 633,-672 633,-660 633,-660 633,-654 639,-648 645,-648 645,-648 693,-648 693,-648 699,-648 705,-654 705,-660 705,-660 705,-672 705,-672 705,-678 699,-684 693,-684"/>
            <text text-anchor="middle" x="669" y="-663.5" font-family="sans" font-size="10.00">pipeline_gc</text>
        </g>
        <!-- 22&#45;&gt;26 -->
        <g id="edge55" class="edge">
            <title>22&#45;&gt;26</title>
            <path fill="none" stroke="grey" stroke-width="2"
                  d="M348.907,-791.871C418.345,-764.783 552.843,-712.314 623.351,-684.808"/>
            <polygon fill="grey" stroke="grey"
                     points="624.818,-687.993 632.862,-681.098 622.274,-681.471 624.818,-687.993"/>
        </g>
        <!-- 23&#45;&gt;16 -->
        <g id="edge40" class="edge">
            <title>23&#45;&gt;16</title>
            <path fill="none" stroke="grey" stroke-width="2"
                  d="M659.109,-437.046C708.78,-425.866 783.543,-409.039 839.802,-396.376"/>
            <polygon fill="grey" stroke="grey"
                     points="840.739,-399.753 849.726,-394.142 839.201,-392.923 840.739,-399.753"/>
        </g>
        <!-- 24&#45;&gt;18 -->
        <g id="edge42" class="edge">
            <title>24&#45;&gt;18</title>
            <path fill="none" stroke="grey" stroke-width="2"
                  d="M1151.03,-287.697C1149.71,-279.983 1148.12,-270.712 1146.65,-262.112"/>
            <polygon fill="grey" stroke="grey"
                     points="1150.07,-261.369 1144.93,-252.104 1143.17,-262.552 1150.07,-261.369"/>
        </g>
        <!-- 25 -->
        <g id="node26" class="node">
            <title>25</title>
            <path fill="none" stroke="#56d8a9" stroke-width="2"
                  d="M798,-324C798,-324 724,-324 724,-324 718,-324 712,-318 712,-312 712,-312 712,-300 712,-300 712,-294 718,-288 724,-288 724,-288 798,-288 798,-288 804,-288 810,-294 810,-300 810,-300 810,-312 810,-312 810,-318 804,-324 798,-324"/>
            <text text-anchor="middle" x="761" y="-303.5" font-family="sans" font-size="10.00">pangolin_update</text>
        </g>
        <!-- 25&#45;&gt;19 -->
        <g id="edge44" class="edge">
            <title>25&#45;&gt;19</title>
            <path fill="none" stroke="grey" stroke-width="2" d="M761,-287.697C761,-279.983 761,-270.712 761,-262.112"/>
            <polygon fill="grey" stroke="grey" points="764.5,-262.104 761,-252.104 757.5,-262.104 764.5,-262.104"/>
        </g>
        <!-- 26&#45;&gt;20 -->
        <g id="edge46" class="edge">
            <title>26&#45;&gt;20</title>
            <path fill="none" stroke="grey" stroke-width="2"
                  d="M705.112,-651.648C763.006,-627.89 867.271,-574.116 838,-504 831.392,-488.172 658.294,-322.689 591.737,-259.415"/>
            <polygon fill="grey" stroke="grey"
                     points="593.827,-256.573 584.167,-252.222 589.005,-261.647 593.827,-256.573"/>
        </g>
        <!-- 27&#45;&gt;23 -->
        <g id="edge52" class="edge">
            <title>27&#45;&gt;23</title>
            <path fill="none" stroke="grey" stroke-width="2"
                  d="M545.775,-503.697C555.754,-494.965 568.011,-484.24 578.857,-474.75"/>
            <polygon fill="grey" stroke="grey"
                     points="581.231,-477.323 586.452,-468.104 576.622,-472.055 581.231,-477.323"/>
        </g>
        <!-- 28&#45;&gt;23 -->
        <g id="edge51" class="edge">
            <title>28&#45;&gt;23</title>
            <path fill="none" stroke="grey" stroke-width="2"
                  d="M702.688,-503.876C685.797,-494.639 664.753,-483.131 646.615,-473.212"/>
            <polygon fill="grey" stroke="grey"
                     points="647.886,-469.917 637.433,-468.19 644.527,-476.059 647.886,-469.917"/>
        </g>
    </g>
</svg>
